<svg width="153" height="56" viewBox="0 0 153 56" fill="none" xmlns="http://www.w3.org/2000/svg">
<rect x="0.0273438" y="0.0273438" width="55.9453" height="55.9453" rx="12.4414" fill="#F1665C"/>
<rect x="0.0273438" y="0.0273438" width="55.9453" height="55.9453" rx="12.4414" stroke="#FF3B30" stroke-width="0.0546875"/>
<path d="M27.9992 45.0168C32.4454 45.0168 36.4905 43.3102 39.5219 40.5195H16.4766C19.5079 43.3102 23.553 45.0168 27.9992 45.0168Z" fill="#2D2C46"/>
<path d="M27.9992 51.0002C32.4454 51.0002 36.4905 49.2936 39.5219 46.5029H16.4766C19.5079 49.2936 23.553 51.0002 27.9992 51.0002Z" fill="#2D2C46"/>
<path d="M27.9992 10.9834C23.553 10.9834 19.5079 12.6899 16.4766 15.4806H39.5194C36.4881 12.6899 32.443 10.9834 27.9968 10.9834H27.9992Z" fill="#2D2C46"/>
<path d="M27.9992 5C23.553 5 19.5079 6.70652 16.4766 9.49724H39.5194C36.4905 6.70652 32.4454 5 27.9992 5Z" fill="#2D2C46"/>
<path d="M45.0168 28.0002C45.0168 23.554 43.3102 19.5089 40.5195 16.4775V39.5204C43.3102 36.489 45.0168 32.4439 45.0168 27.9978V28.0002Z" fill="#2D2C46"/>
<path d="M51.0011 28.0002C51.0011 23.554 49.2946 19.5089 46.5039 16.4775V39.5204C49.2946 36.489 51.0011 32.4439 51.0011 27.9978V28.0002Z" fill="#2D2C46"/>
<path d="M10.9844 28.2434C10.9844 32.6895 12.6909 36.7346 15.4816 39.766V16.7207C12.6909 19.7521 10.9844 23.7972 10.9844 28.2434Z" fill="#2D2C46"/>
<path d="M5 28.0002C5 32.4464 6.70652 36.4915 9.49724 39.5228V16.4775C6.70652 19.5089 5 23.554 5 28.0002Z" fill="#2D2C46"/>
<path d="M27.9992 34.3207C31.3556 34.3207 34.0766 31.5998 34.0766 28.2434C34.0766 24.8869 31.3556 22.166 27.9992 22.166C24.6428 22.166 21.9219 24.8869 21.9219 28.2434C21.9219 31.5998 24.6428 34.3207 27.9992 34.3207Z" fill="#2D2C46"/>
<path d="M75.3544 25.6378C75.2976 25.0649 75.0538 24.6198 74.6229 24.3026C74.192 23.9853 73.6073 23.8267 72.8686 23.8267C72.3667 23.8267 71.943 23.8977 71.5973 24.0398C71.2517 24.1771 70.9865 24.3688 70.8019 24.6151C70.622 24.8613 70.532 25.1406 70.532 25.4531C70.5225 25.7135 70.577 25.9408 70.6953 26.1349C70.8185 26.3291 70.9865 26.4972 71.1996 26.6392C71.4127 26.7765 71.6589 26.8973 71.9382 27.0014C72.2176 27.1009 72.5159 27.1861 72.8331 27.2571L74.1399 27.5696C74.7744 27.7116 75.3568 27.901 75.8871 28.1378C76.4174 28.3745 76.8767 28.6657 77.2649 29.0114C77.6532 29.357 77.9539 29.7642 78.1669 30.233C78.3847 30.7017 78.496 31.2391 78.5007 31.8452C78.496 32.7353 78.2687 33.5071 77.8189 34.1605C77.3739 34.8092 76.7299 35.3134 75.8871 35.6733C75.049 36.0284 74.0381 36.206 72.8544 36.206C71.6802 36.206 70.6575 36.026 69.7863 35.6662C68.9198 35.3063 68.2427 34.7737 67.755 34.0682C67.2721 33.358 67.0187 32.4796 66.9951 31.4332H69.9709C70.0041 31.9209 70.1437 32.3281 70.3899 32.6548C70.6409 32.9768 70.9747 33.2206 71.3914 33.3864C71.8128 33.5473 72.2886 33.6278 72.8189 33.6278C73.3398 33.6278 73.7919 33.5521 74.1755 33.4006C74.5637 33.2491 74.8644 33.0384 75.0774 32.7685C75.2905 32.4986 75.3971 32.1884 75.3971 31.8381C75.3971 31.5114 75.3 31.2367 75.1059 31.0142C74.9165 30.7917 74.6371 30.6023 74.2678 30.446C73.9032 30.2898 73.4558 30.1477 72.9255 30.0199L71.3417 29.6222C70.1153 29.3239 69.1471 28.8575 68.4368 28.223C67.7266 27.5885 67.3739 26.7339 67.3786 25.6591C67.3739 24.7784 67.6082 24.009 68.0817 23.3509C68.5599 22.6927 69.2157 22.179 70.049 21.8097C70.8824 21.4403 71.8293 21.2557 72.8899 21.2557C73.9695 21.2557 74.9117 21.4403 75.7167 21.8097C76.5263 22.179 77.156 22.6927 77.6059 23.3509C78.0557 24.009 78.2877 24.7713 78.3019 25.6378H75.3544ZM86.9082 31.3551V25.0909H89.9338V36H87.0289V34.0185H86.9153C86.6691 34.6577 86.2595 35.1714 85.6866 35.5597C85.1184 35.9479 84.4248 36.142 83.6056 36.142C82.8765 36.142 82.2349 35.9763 81.6809 35.6449C81.127 35.3134 80.6937 34.8423 80.3812 34.2315C80.0734 33.6207 79.9172 32.8892 79.9125 32.0369V25.0909H82.938V31.4972C82.9428 32.1411 83.1156 32.6501 83.4565 33.0241C83.7974 33.3982 84.2543 33.5852 84.8272 33.5852C85.1918 33.5852 85.5327 33.5024 85.85 33.3366C86.1672 33.1662 86.4229 32.9152 86.617 32.5838C86.8159 32.2524 86.9129 31.8428 86.9082 31.3551ZM91.7539 36V25.0909H94.6871V26.9943H94.8007C94.9996 26.3172 95.3334 25.8059 95.8022 25.4602C96.2709 25.1098 96.8107 24.9347 97.4215 24.9347C97.573 24.9347 97.7363 24.9441 97.9115 24.9631C98.0867 24.982 98.2406 25.008 98.3732 25.0412V27.7259C98.2311 27.6832 98.0346 27.6454 97.7837 27.6122C97.5328 27.5791 97.3031 27.5625 97.0948 27.5625C96.6497 27.5625 96.252 27.6596 95.9016 27.8537C95.556 28.0431 95.2813 28.3082 95.0777 28.6491C94.8789 28.9901 94.7794 29.383 94.7794 29.8281V36H91.7539ZM103.801 36.2131C102.679 36.2131 101.713 35.9858 100.904 35.5312C100.099 35.072 99.4783 34.4233 99.0427 33.5852C98.6071 32.7424 98.3893 31.7457 98.3893 30.5952C98.3893 29.473 98.6071 28.4882 99.0427 27.6406C99.4783 26.7931 100.091 26.1326 100.882 25.6591C101.678 25.1856 102.61 24.9489 103.681 24.9489C104.4 24.9489 105.07 25.0649 105.69 25.2969C106.315 25.5241 106.86 25.8674 107.324 26.3267C107.793 26.786 108.157 27.3636 108.418 28.0597C108.678 28.7509 108.808 29.5606 108.808 30.4886V31.3196H99.5967V29.4446H105.96C105.96 29.009 105.866 28.6231 105.676 28.2869C105.487 27.9508 105.224 27.688 104.888 27.4986C104.556 27.3045 104.171 27.2074 103.73 27.2074C103.271 27.2074 102.864 27.3139 102.509 27.527C102.158 27.7353 101.884 28.017 101.685 28.3722C101.486 28.7225 101.384 29.1132 101.379 29.544V31.3267C101.379 31.8665 101.479 32.3329 101.678 32.7259C101.881 33.1188 102.168 33.4219 102.537 33.6349C102.906 33.848 103.344 33.9545 103.851 33.9545C104.187 33.9545 104.495 33.9072 104.774 33.8125C105.054 33.7178 105.293 33.5758 105.492 33.3864C105.69 33.197 105.842 32.965 105.946 32.6903L108.744 32.875C108.602 33.5473 108.311 34.1345 107.871 34.6364C107.435 35.1335 106.872 35.5218 106.181 35.8011C105.494 36.0758 104.701 36.2131 103.801 36.2131ZM118.13 25.6378C118.073 25.0649 117.83 24.6198 117.399 24.3026C116.968 23.9853 116.383 23.8267 115.644 23.8267C115.143 23.8267 114.719 23.8977 114.373 24.0398C114.027 24.1771 113.762 24.3688 113.578 24.6151C113.398 24.8613 113.308 25.1406 113.308 25.4531C113.298 25.7135 113.353 25.9408 113.471 26.1349C113.594 26.3291 113.762 26.4972 113.975 26.6392C114.188 26.7765 114.435 26.8973 114.714 27.0014C114.993 27.1009 115.292 27.1861 115.609 27.2571L116.916 27.5696C117.55 27.7116 118.133 27.901 118.663 28.1378C119.193 28.3745 119.652 28.6657 120.041 29.0114C120.429 29.357 120.73 29.7642 120.943 30.233C121.161 30.7017 121.272 31.2391 121.277 31.8452C121.272 32.7353 121.045 33.5071 120.595 34.1605C120.15 34.8092 119.506 35.3134 118.663 35.6733C117.825 36.0284 116.814 36.206 115.63 36.206C114.456 36.206 113.433 36.026 112.562 35.6662C111.696 35.3063 111.018 34.7737 110.531 34.0682C110.048 33.358 109.795 32.4796 109.771 31.4332H112.747C112.78 31.9209 112.92 32.3281 113.166 32.6548C113.417 32.9768 113.75 33.2206 114.167 33.3864C114.589 33.5473 115.064 33.6278 115.595 33.6278C116.116 33.6278 116.568 33.5521 116.951 33.4006C117.339 33.2491 117.64 33.0384 117.853 32.7685C118.066 32.4986 118.173 32.1884 118.173 31.8381C118.173 31.5114 118.076 31.2367 117.882 31.0142C117.692 30.7917 117.413 30.6023 117.044 30.446C116.679 30.2898 116.232 30.1477 115.701 30.0199L114.117 29.6222C112.891 29.3239 111.923 28.8575 111.213 28.223C110.502 27.5885 110.15 26.7339 110.154 25.6591C110.15 24.7784 110.384 24.009 110.857 23.3509C111.336 22.6927 111.991 22.179 112.825 21.8097C113.658 21.4403 114.605 21.2557 115.666 21.2557C116.745 21.2557 117.688 21.4403 118.492 21.8097C119.302 22.179 119.932 22.6927 120.382 23.3509C120.831 24.009 121.063 24.7713 121.078 25.6378H118.13ZM125.714 29.6932V36H122.688V21.4545H125.629V27.0156H125.756C126.003 26.3717 126.4 25.8674 126.95 25.5028C127.499 25.1335 128.188 24.9489 129.016 24.9489C129.774 24.9489 130.434 25.1146 130.998 25.446C131.566 25.7727 132.006 26.2438 132.319 26.8594C132.636 27.4702 132.792 28.2017 132.788 29.054V36H129.762V29.5938C129.767 28.9214 129.596 28.3982 129.251 28.0241C128.91 27.6501 128.432 27.4631 127.816 27.4631C127.404 27.4631 127.04 27.5507 126.722 27.7259C126.41 27.901 126.164 28.1567 125.984 28.4929C125.809 28.8243 125.719 29.2244 125.714 29.6932ZM139.498 36.2131C138.394 36.2131 137.44 35.9787 136.635 35.5099C135.835 35.0365 135.217 34.3783 134.782 33.5355C134.346 32.688 134.128 31.7055 134.128 30.5881C134.128 29.4612 134.346 28.4763 134.782 27.6335C135.217 26.786 135.835 26.1278 136.635 25.6591C137.44 25.1856 138.394 24.9489 139.498 24.9489C140.601 24.9489 141.553 25.1856 142.353 25.6591C143.158 26.1278 143.778 26.786 144.214 27.6335C144.649 28.4763 144.867 29.4612 144.867 30.5881C144.867 31.7055 144.649 32.688 144.214 33.5355C143.778 34.3783 143.158 35.0365 142.353 35.5099C141.553 35.9787 140.601 36.2131 139.498 36.2131ZM139.512 33.8693C140.014 33.8693 140.433 33.7273 140.769 33.4432C141.105 33.1544 141.358 32.7614 141.529 32.2642C141.704 31.767 141.792 31.2012 141.792 30.5668C141.792 29.9323 141.704 29.3665 141.529 28.8693C141.358 28.3722 141.105 27.9792 140.769 27.6903C140.433 27.4015 140.014 27.2571 139.512 27.2571C139.005 27.2571 138.579 27.4015 138.233 27.6903C137.893 27.9792 137.635 28.3722 137.459 28.8693C137.289 29.3665 137.204 29.9323 137.204 30.5668C137.204 31.2012 137.289 31.767 137.459 32.2642C137.635 32.7614 137.893 33.1544 138.233 33.4432C138.579 33.7273 139.005 33.8693 139.512 33.8693ZM152.037 25.0909V27.3636H145.467V25.0909H152.037ZM146.959 22.4773H149.984V32.6477C149.984 32.9271 150.027 33.1449 150.112 33.3011C150.197 33.4527 150.316 33.5592 150.467 33.6207C150.624 33.6823 150.803 33.7131 151.007 33.7131C151.149 33.7131 151.291 33.7012 151.433 33.6776C151.575 33.6491 151.684 33.6278 151.76 33.6136L152.236 35.8651C152.084 35.9124 151.871 35.9669 151.597 36.0284C151.322 36.0947 150.988 36.1349 150.595 36.1491C149.866 36.1776 149.227 36.0805 148.678 35.858C148.133 35.6354 147.709 35.2898 147.406 34.821C147.103 34.3523 146.954 33.7604 146.959 33.0455V22.4773Z" fill="white"/>
</svg>
